<svg xmlns="http://www.w3.org/2000/svg" width="86.85" height="70.159" viewBox="0 0 86.85 70.159">
  <g id="_4" data-name="4" transform="matrix(0.985, -0.174, 0.174, 0.985, -8.381, 10.793)">
    <path id="Path_213" data-name="Path 213" d="M16.094,66.052a4.1,4.1,0,0,1-.69-.059,4.038,4.038,0,0,1-3.3-4.662L14.372,48.1a13.151,13.151,0,0,0-1.844-8.128L9.647,35.9A1.138,1.138,0,0,1,11.5,34.589l2.881,4.074a15.382,15.382,0,0,1,2.229,9.826L14.348,61.715a1.763,1.763,0,0,0,3.475.6L20.09,49.086a19.2,19.2,0,0,0-2.824-12.461l-2.881-4.072a1.138,1.138,0,0,1,1.857-1.314l2.881,4.073A21.144,21.144,0,0,1,22.332,49.47L20.066,62.695a4.039,4.039,0,0,1-3.972,3.357ZM7.227,31.647a1.136,1.136,0,0,1-.93-.481L3.416,27.093A21.135,21.135,0,0,1,.207,12.936L1.849,3.357a4.038,4.038,0,0,1,7.96,1.364L8.168,14.3a13.147,13.147,0,0,0,1.842,8.129L12.892,26.5a1.138,1.138,0,1,1-1.857,1.314L8.153,23.743a15.376,15.376,0,0,1-2.227-9.828L7.567,4.337a1.763,1.763,0,1,0-3.475-.6L2.449,13.32A19.194,19.194,0,0,0,5.274,25.78l2.881,4.072a1.138,1.138,0,0,1-.928,1.795Z" transform="translate(36.154 0)" fill="#fff" stroke="#fff" stroke-width="1"/>
    <path id="Path_214" data-name="Path 214" d="M22.886,29.671a1.138,1.138,0,0,1-.658-2.066L26.3,24.724a19.2,19.2,0,0,0,6.812-10.809l1.642-9.577A1.764,1.764,0,0,0,32,2.6a1.75,1.75,0,0,0-.719,1.141L29.637,13.32a15.391,15.391,0,0,1-5.374,8.525L20.19,24.726a1.138,1.138,0,0,1-1.314-1.857l4.073-2.881a13.163,13.163,0,0,0,4.446-7.052l1.641-9.578A4.039,4.039,0,0,1,37,4.722L35.355,14.3a21.139,21.139,0,0,1-7.74,12.281l-4.073,2.881A1.132,1.132,0,0,1,22.886,29.671ZM4.04,59.328A4.04,4.04,0,0,1,.058,54.606L2.325,41.381A21.139,21.139,0,0,1,10.065,29.1l4.074-2.881a1.138,1.138,0,0,1,1.314,1.858l-4.074,2.881A19.2,19.2,0,0,0,4.567,41.766L2.3,54.99a1.764,1.764,0,1,0,3.477.6L8.044,42.361a15.382,15.382,0,0,1,5.373-8.525l4.073-2.881A1.138,1.138,0,0,1,18.8,32.813l-4.073,2.881a13.152,13.152,0,0,0-4.444,7.052L8.02,55.971A4.048,4.048,0,0,1,4.04,59.328Z" transform="translate(28.584 3.362)" fill="#fff" stroke="#fff" stroke-width="1"/>
    <g id="_4-2" data-name="4" transform="matrix(0.985, 0.174, -0.174, 0.985, 8.271, 2.643)">
      <g id="_4-3" data-name="4" transform="matrix(0.985, -0.174, 0.174, 0.985, 0, 4.287)">
        <path id="Path_213-2" data-name="Path 213" d="M10.723,44.01a2.728,2.728,0,0,1-.46-.039,2.69,2.69,0,0,1-2.2-3.106l1.51-8.813a8.763,8.763,0,0,0-1.229-5.415l-1.92-2.715a.758.758,0,0,1,1.238-.875l1.92,2.714a10.249,10.249,0,0,1,1.485,6.547L9.56,41.12a1.175,1.175,0,0,0,2.316.4l1.51-8.812A12.8,12.8,0,0,0,11.5,24.4L9.585,21.69a.758.758,0,1,1,1.238-.875l1.92,2.714a14.088,14.088,0,0,1,2.138,9.434l-1.51,8.811a2.691,2.691,0,0,1-2.646,2.237ZM4.815,21.086a.757.757,0,0,1-.619-.32l-1.92-2.714A14.082,14.082,0,0,1,.138,8.619L1.232,2.237a2.691,2.691,0,0,1,5.3.909L5.442,9.528A8.759,8.759,0,0,0,6.67,14.945l1.92,2.714a.758.758,0,1,1-1.238.875L5.432,15.82A10.245,10.245,0,0,1,3.948,9.272L5.042,2.89a1.175,1.175,0,1,0-2.316-.4L1.632,8.875a12.789,12.789,0,0,0,1.882,8.3l1.92,2.713a.758.758,0,0,1-.618,1.2Z" transform="translate(5.044 0)" fill="#fff" stroke="#fff" stroke-width="1"/>
        <path id="Path_214-2" data-name="Path 214" d="M15.248,19.77a.758.758,0,0,1-.438-1.377l2.714-1.92a12.791,12.791,0,0,0,4.539-7.2l1.094-6.381A1.175,1.175,0,0,0,21.32,1.733a1.166,1.166,0,0,0-.479.76L19.747,8.875a10.255,10.255,0,0,1-3.581,5.68l-2.714,1.92a.758.758,0,1,1-.875-1.238l2.714-1.92a8.77,8.77,0,0,0,2.962-4.7l1.093-6.382a2.691,2.691,0,0,1,5.3.91L23.557,9.528A14.085,14.085,0,0,1,18.4,17.711l-2.714,1.92A.754.754,0,0,1,15.248,19.77ZM2.692,39.529A2.691,2.691,0,0,1,.039,36.384l1.51-8.812a14.085,14.085,0,0,1,5.158-8.183l2.715-1.92a.758.758,0,0,1,.875,1.238l-2.714,1.92a12.79,12.79,0,0,0-4.539,7.2l-1.51,8.811a1.175,1.175,0,1,0,2.317.4l1.51-8.812a10.249,10.249,0,0,1,3.58-5.68l2.714-1.92a.758.758,0,1,1,.875,1.238l-2.714,1.92a8.763,8.763,0,0,0-2.961,4.7l-1.51,8.813A2.7,2.7,0,0,1,2.692,39.529Z" transform="translate(0 2.24)" fill="#fff" stroke="#fff" stroke-width="1"/>
      </g>
      <g id="_4-4" data-name="4" transform="matrix(0.985, -0.174, 0.174, 0.985, 54.448, 4.287)">
        <path id="Path_213-3" data-name="Path 213" d="M10.723,44.01a2.728,2.728,0,0,1-.46-.039,2.69,2.69,0,0,1-2.2-3.106l1.51-8.813a8.763,8.763,0,0,0-1.229-5.415l-1.92-2.715a.758.758,0,0,1,1.238-.875l1.92,2.714a10.249,10.249,0,0,1,1.485,6.547L9.56,41.12a1.175,1.175,0,0,0,2.316.4l1.51-8.812A12.8,12.8,0,0,0,11.5,24.4L9.585,21.69a.758.758,0,1,1,1.238-.875l1.92,2.714a14.088,14.088,0,0,1,2.138,9.434l-1.51,8.811a2.691,2.691,0,0,1-2.646,2.237ZM4.815,21.086a.757.757,0,0,1-.619-.32l-1.92-2.714A14.082,14.082,0,0,1,.138,8.619L1.232,2.237a2.691,2.691,0,0,1,5.3.909L5.442,9.528A8.759,8.759,0,0,0,6.67,14.945l1.92,2.714a.758.758,0,1,1-1.238.875L5.432,15.82A10.245,10.245,0,0,1,3.948,9.272L5.042,2.89a1.175,1.175,0,1,0-2.316-.4L1.632,8.875a12.789,12.789,0,0,0,1.882,8.3l1.92,2.713a.758.758,0,0,1-.618,1.2Z" transform="translate(5.044 0)" fill="#fff" stroke="#fff" stroke-width="1"/>
        <path id="Path_214-3" data-name="Path 214" d="M15.248,19.77a.758.758,0,0,1-.438-1.377l2.714-1.92a12.791,12.791,0,0,0,4.539-7.2l1.094-6.381A1.175,1.175,0,0,0,21.32,1.733a1.166,1.166,0,0,0-.479.76L19.747,8.875a10.255,10.255,0,0,1-3.581,5.68l-2.714,1.92a.758.758,0,1,1-.875-1.238l2.714-1.92a8.77,8.77,0,0,0,2.962-4.7l1.093-6.382a2.691,2.691,0,0,1,5.3.91L23.557,9.528A14.085,14.085,0,0,1,18.4,17.711l-2.714,1.92A.754.754,0,0,1,15.248,19.77ZM2.692,39.529A2.691,2.691,0,0,1,.039,36.384l1.51-8.812a14.085,14.085,0,0,1,5.158-8.183l2.715-1.92a.758.758,0,0,1,.875,1.238l-2.714,1.92a12.79,12.79,0,0,0-4.539,7.2l-1.51,8.811a1.175,1.175,0,1,0,2.317.4l1.51-8.812a10.249,10.249,0,0,1,3.58-5.68l2.714-1.92a.758.758,0,1,1,.875,1.238l-2.714,1.92a8.763,8.763,0,0,0-2.961,4.7l-1.51,8.813A2.7,2.7,0,0,1,2.692,39.529Z" transform="translate(0 2.24)" fill="#fff" stroke="#fff" stroke-width="1"/>
      </g>
    </g>
  </g>
</svg>
