<svg xmlns="http://www.w3.org/2000/svg" width="88.865" height="60.532" viewBox="0 0 88.865 60.532">
  <g id="_5" data-name="5" transform="translate(0.501 0.523)">
    <g id="Group_48" data-name="Group 48" transform="translate(0 0)">
      <path id="Path_162" data-name="Path 162" d="M40.254,45.177a7.634,7.634,0,0,1-5.148,5.105c-.151.452-.3.862-.474,1.271a17.049,17.049,0,0,1-2.757,4.739A11.179,11.179,0,0,1,30.5,57.756a13.76,13.76,0,0,1-2.628,1.939h-.022a1.97,1.97,0,0,1-.3.151,12.42,12.42,0,0,1-2.283.991,15.131,15.131,0,0,1-4.825.754,16.661,16.661,0,0,1-1.809-.108,17.594,17.594,0,0,1-3.253-.711,21.608,21.608,0,0,1-2.2-.926c-.086-.065-.151-.108-.258-.194a12.9,12.9,0,0,1-2.865-1.939,12.132,12.132,0,0,1-4.33-7.841c-3.77-.948-5.471-3.64-5.514-6.031a5.816,5.816,0,0,1,3.856-5.407A7.941,7.941,0,0,1,5.6,37.961a1.027,1.027,0,0,1,1.249.8.985.985,0,0,1-.043.56c0,.022-.022.043-.022.065a.717.717,0,0,1-.129.215.509.509,0,0,1-.172.194,1.14,1.14,0,0,1-.452.237H5.983c-2.262.5-3.7,1.96-3.683,3.791.022,1.572,1.228,3.6,4.567,4.157a1.076,1.076,0,0,1,.862.969c.388,6.053,5.9,9.822,11.158,10.447a12.83,12.83,0,0,0,7.776-1.486.873.873,0,0,1,.194-.108A13.906,13.906,0,0,0,32.737,50.6c.172-.5.366-.969.517-1.508a1.027,1.027,0,0,1,.732-.689,5.6,5.6,0,0,0,4.2-3.748,4.138,4.138,0,0,0-.517-3.145,2.355,2.355,0,0,0-.172-.323,7.56,7.56,0,0,0-.926-1.163,3.434,3.434,0,0,0-.28-.28A1.067,1.067,0,1,1,37.756,38.2l.388.388v.022a2.956,2.956,0,0,1,.431.474,7.7,7.7,0,0,1,1.206,1.874A6.279,6.279,0,0,1,40.254,45.177Z" transform="translate(-0.209 -18.043)" fill="#fff" stroke="#fff" stroke-width="1"/>
      <path id="Path_163" data-name="Path 163" d="M25.726,29.753c-7.5-2.649-15.4-.258-19.386,5.837L3.3,34.384a1.5,1.5,0,0,0-1.443.151,1.524,1.524,0,0,0-.689,1.249C1.084,40.8,1.235,46.1,2.936,49.075a4.556,4.556,0,0,0,1.012,1.335.992.992,0,0,0,.711.28.808.808,0,0,0,.215-.022h.043a1.14,1.14,0,0,0,.452-.237.509.509,0,0,0,.172-.194.717.717,0,0,0,.129-.215c0-.022.022-.043.022-.065.172-.388.28-.732.431-1.12a15.629,15.629,0,0,1,2.262-4.523,10.115,10.115,0,0,0,6.333,5.859,7.8,7.8,0,0,0,2.822.517H36a1.029,1.029,0,0,0,1.034-.9c.022-.194.043-.366.065-.539C38.306,38.262,32.059,31.994,25.726,29.753Zm-10.3,18.46c-3.016-1.142-4.76-2.908-5.428-5.6a1.387,1.387,0,0,0-.926-.991,1.493,1.493,0,0,0-.431-.065,1.272,1.272,0,0,0-.883.345A13.166,13.166,0,0,0,4.423,47.33c-1.163-2.843-1.206-7.905-1.163-10.684l2.757,1.077a1.546,1.546,0,0,0,1.9-.625c3.36-5.514,10.426-7.711,17.1-5.342C30.487,33.7,35.893,39.145,35.01,48.58H17.519A7.459,7.459,0,0,1,15.43,48.213Z" transform="translate(0.877 -28.683)" fill="#fff" stroke="#fff" stroke-width="1"/>
      <path id="Path_165" data-name="Path 165" d="M36.132,66.927H2.852A1.977,1.977,0,0,1,.87,64.945V55.726A8.614,8.614,0,0,1,9.486,47.11h3.188a1.055,1.055,0,0,1,0,2.111H9.465a6.509,6.509,0,0,0-6.484,6.505v9.219l33.172-.129-.108-9.09a6.513,6.513,0,0,0-6.505-6.505H26.525a1.055,1.055,0,0,1,0-2.111H29.54a8.628,8.628,0,0,1,8.616,8.616v9.219A2.014,2.014,0,0,1,36.132,66.927Z" transform="translate(0.553 -7.418)" fill="#fff" stroke="#fff" stroke-width="1"/>
      <path id="Path_167" data-name="Path 167" d="M21.238,48.463c-.043.194-.065.366-.108.539h-.022c0,.065-.022.108-.022.151-1.185,4.782-4.61,6.441-7.41,6.441H13.4A7.806,7.806,0,0,1,6.16,49.152q0-.1,0-.194a4.021,4.021,0,0,1-.086-.539,1.062,1.062,0,0,1,.948-1.163.691.691,0,0,1,.366.043,1.007,1.007,0,0,1,.8.883,6.156,6.156,0,0,0,.474,1.852,5.472,5.472,0,0,0,4.847,3.4A5.144,5.144,0,0,0,18.567,50.1a7.781,7.781,0,0,0,.625-2.068,1.057,1.057,0,0,1,.668-.8h.022a.926.926,0,0,1,.539-.043A1.09,1.09,0,0,1,21.238,48.463Z" transform="translate(6.55 -7.349)" fill="#fff" stroke="#fff" stroke-width="1"/>
      <g id="Group_45" data-name="Group 45" transform="translate(25.613 24.011)">
        <path id="Path_168" data-name="Path 168" d="M13.586,45.6A1.489,1.489,0,0,1,12.1,44.117v-2.8a1.486,1.486,0,0,1,2.973,0v2.8A1.489,1.489,0,0,1,13.586,45.6Z" transform="translate(-12.1 -39.83)" fill="#fff"/>
        <path id="Path_169" data-name="Path 169" d="M13.355,44.941A1.057,1.057,0,0,1,12.3,43.886v-2.8a1.055,1.055,0,1,1,2.111,0v2.8A1.057,1.057,0,0,1,13.355,44.941Z" transform="translate(-11.869 -39.599)" fill="#fff"/>
      </g>
      <g id="Group_46" data-name="Group 46" transform="translate(11.654 24.011)">
        <path id="Path_170" data-name="Path 170" d="M7.106,45.6A1.489,1.489,0,0,1,5.62,44.117v-2.8a1.486,1.486,0,0,1,2.973,0v2.8A1.489,1.489,0,0,1,7.106,45.6Z" transform="translate(-5.62 -39.83)" fill="#fff"/>
        <path id="Path_171" data-name="Path 171" d="M6.875,44.941A1.057,1.057,0,0,1,5.82,43.886v-2.8a1.055,1.055,0,1,1,2.111,0v2.8A1.057,1.057,0,0,1,6.875,44.941Z" transform="translate(-5.389 -39.599)" fill="#fff"/>
      </g>
      <g id="Group_47" data-name="Group 47" transform="translate(15.306 30.86)">
        <path id="Path_172" data-name="Path 172" d="M11.892,49.58c-2.3-.108-4.179-2.111-4.567-4.89a1.462,1.462,0,0,1,.3-1.1,1.374,1.374,0,0,1,.969-.56l.215-.022A1.48,1.48,0,0,1,10.255,44.3c.215,1.551,1.055,2.283,1.745,2.326.862-.022,1.594-.948,1.939-2.456a1.5,1.5,0,0,1,1.443-1.163,1.886,1.886,0,0,1,.345.043,1.481,1.481,0,0,1,1.12,1.766c-.8,3.511-2.994,4.76-4.782,4.76Z" transform="translate(-7.315 -43.01)" fill="#fff"/>
        <path id="Path_173" data-name="Path 173" d="M11.844,48.937h-.151c-2.111-.108-3.813-1.96-4.157-4.523a1.035,1.035,0,0,1,.9-1.185,1.021,1.021,0,0,1,1.185.9c.237,1.788,1.292,2.649,2.154,2.693,1.055-.022,1.96-1.012,2.369-2.779a1.061,1.061,0,1,1,2.068.474C15.463,47.774,13.481,48.937,11.844,48.937Z" transform="translate(-7.073 -42.777)" fill="#fff"/>
      </g>
    </g>
    <g id="Group_53" data-name="Group 53" transform="translate(41.057 0.919)">
      <path id="Path_175" data-name="Path 175" d="M81.544,45.212a3.882,3.882,0,0,1-.172.452,4.905,4.905,0,0,1-1.142,1.745,6.17,6.17,0,0,1-3.123,1.659,22.823,22.823,0,0,1-1.163,2.542c0,.022-.022.065-.022.086a16.9,16.9,0,0,1-2.283,3.339,14.878,14.878,0,0,1-3.963,3.339c-.366.194-.711.388-1.1.56h-.043a3.98,3.98,0,0,1-.625.28l-.022.022-.323.129a12.964,12.964,0,0,1-4.48.754H62.74a13.477,13.477,0,0,1-4.071-.732.972.972,0,0,1-.237-.065,6.725,6.725,0,0,1-.9-.388,8.065,8.065,0,0,1-.969-.474,14.519,14.519,0,0,1-3.963-3.037c-.3-.345-.582-.668-.862-1.055a.656.656,0,0,1-.151-.215c-.022-.043-.065-.065-.065-.108a6.628,6.628,0,0,1-.6-.819,17.674,17.674,0,0,1-2-4.157,6.21,6.21,0,0,1-2.843-1.486,5,5,0,0,1-1.206-1.723,4.53,4.53,0,0,1-.323-.9,6.357,6.357,0,0,1,.711-4.5A6.7,6.7,0,0,1,46.3,39.009l.258-.258a7.758,7.758,0,0,1,1.12-.926,1.1,1.1,0,0,1,.582-.194,1.085,1.085,0,0,1,.883.474,1.032,1.032,0,0,1-.28,1.465l-.258.194A5.732,5.732,0,0,0,47.467,40.9a2.259,2.259,0,0,0-.172.237,4.3,4.3,0,0,0-.711,3.339,3.609,3.609,0,0,0,3.253,2.649,1.114,1.114,0,0,1,.862.732,16.973,16.973,0,0,0,2.5,5.04.687.687,0,0,1,.129.151,12.987,12.987,0,0,0,4.567,3.791l.129.065a11.8,11.8,0,0,0,4.739,1.142,10.735,10.735,0,0,0,5.213-1.12A.021.021,0,0,1,68,56.909l.258-.129a14.462,14.462,0,0,0,5.751-5.988V50.77A21.461,21.461,0,0,0,75.3,47.84a1.08,1.08,0,0,1,.862-.689,4.245,4.245,0,0,0,2.779-1.379.9.9,0,0,1,.194-.3A3.637,3.637,0,0,0,79.5,44.7c.474-1.594-.237-3.425-1.831-4.911-.086-.086-.194-.172-.28-.258a1.065,1.065,0,0,1,.689-1.874.963.963,0,0,1,.668.258,9.169,9.169,0,0,1,1.12,1.12A6.466,6.466,0,0,1,81.544,45.212Z" transform="translate(-39.821 -19.278)" fill="#fff" stroke="#fff" stroke-width="1"/>
      <path id="Path_176" data-name="Path 176" d="M63.887,29.11H61.108a16.235,16.235,0,0,0-16.2,16.2v1.659a4.183,4.183,0,0,0,.043.517v.022a2.654,2.654,0,0,0,.754,1.335,1.972,1.972,0,0,0,1.012.6,2.439,2.439,0,0,0,.775.129h8.228a6.5,6.5,0,0,0,3.253-.8A9.094,9.094,0,0,0,62.4,45.222a7.725,7.725,0,0,0,3.683,3.64,6.621,6.621,0,0,0,3.08.711h8.315a2.574,2.574,0,0,0,2.563-2.585V45.33A16.148,16.148,0,0,0,63.887,29.11Zm5.32,18.331a4.578,4.578,0,0,1-2.132-.5c-2.5-1.271-3.21-3.21-3.576-5.924a1.064,1.064,0,0,0-1.055-.9h-.086a1.061,1.061,0,0,0-.969,1.077,6.929,6.929,0,0,1-3.425,5.73,4.307,4.307,0,0,1-2.2.517H47.538a.487.487,0,0,1-.5-.5V45.287A14.107,14.107,0,0,1,61.13,31.2h2.779A14.107,14.107,0,0,1,78,45.287v1.659a.483.483,0,0,1-.474.5H69.208Z" transform="translate(-39.223 -29.11)" fill="#fff" stroke="#fff" stroke-width="1"/>
      <path id="Path_178" data-name="Path 178" d="M63.168,47.515V50.94a6.545,6.545,0,0,1-6.57,6.548A6.545,6.545,0,0,1,50.05,50.94V47.6a1.071,1.071,0,0,1,1.055-1.055,1.662,1.662,0,0,1,.323.043l.129.065a1.046,1.046,0,0,1,.6.948V50.94a4.448,4.448,0,0,0,8.9,0V47.515a1.014,1.014,0,0,1,.452-.84.021.021,0,0,1,.022-.022l.258-.129a.893.893,0,0,1,.345-.065A1.083,1.083,0,0,1,63.168,47.515Z" transform="translate(-33.292 -9.087)" fill="#fff" stroke="#fff" stroke-width="1"/>
      <path id="Path_180" data-name="Path 180" d="M78.1,66.456H46.863a1.728,1.728,0,0,1-1.723-1.723V55.556A8.025,8.025,0,0,1,51.8,47.629a7.037,7.037,0,0,1,1.4-.129h3.576a1.055,1.055,0,0,1,0,2.111H53.2a5.209,5.209,0,0,0-1.012.086,5.917,5.917,0,0,0-4.933,5.837v8.788h30.48V55.535a5.934,5.934,0,0,0-5.924-5.924H67.8a1.055,1.055,0,1,1,0-2.111h4.007a8.053,8.053,0,0,1,8.035,8.056v9.176A1.747,1.747,0,0,1,78.1,66.456Z" transform="translate(-38.958 -7.887)" fill="#fff" stroke="#fff" stroke-width="1"/>
      <path id="Path_181" data-name="Path 181" d="M71.016,50.7v6.053a2.181,2.181,0,0,1-2.089,2.176H68.56a12.448,12.448,0,0,1-5.471-1.185A9,9,0,0,1,60.2,55.612s-.043,0-.043-.022a4.305,4.305,0,0,1-.409-.474,8.818,8.818,0,0,1-1.723-4.05,9.351,9.351,0,0,1,.258-3.985,1.126,1.126,0,0,1,.151-.323v-.022a1.124,1.124,0,0,1,1.163-.409,1.051,1.051,0,0,1,.732,1.292c0,.022-.022.065-.022.086a6.8,6.8,0,0,0,1.1,6.1c1.594,2,4.2,3.08,7.453,2.994L68.9,50.68a8.188,8.188,0,0,0-.969-4.157,7.747,7.747,0,0,0-3.3-3.08c-.215-.108-.474-.215-.689-.323a1.107,1.107,0,0,1-.582-1.4.9.9,0,0,1,.194-.3,1.052,1.052,0,0,1,1.206-.258,7.442,7.442,0,0,1,1.012.517,9.861,9.861,0,0,1,4.007,3.791A10.744,10.744,0,0,1,71.016,50.7Z" transform="translate(-24.208 -15.31)" fill="#fff" stroke="#fff" stroke-width="1"/>
      <g id="Group_49" data-name="Group 49" transform="translate(0 25.957)">
        <path id="Path_183" data-name="Path 183" d="M55.517,48.935a10.236,10.236,0,0,1-.258,1.594,4.821,4.821,0,0,1-.215.8,10.632,10.632,0,0,1-3.317,5.04,10.8,10.8,0,0,1-7.065,2.413h-.517a1.978,1.978,0,0,1-1.874-1.939V49.452a7.666,7.666,0,0,1,.646-3.188,9.3,9.3,0,0,1,4.351-4.5,8.583,8.583,0,0,1,1.1-.517,1.053,1.053,0,0,1,1.379.582,1.066,1.066,0,0,1-.6,1.379c-.237.086-.452.194-.646.28a7.347,7.347,0,0,0-3.64,3.662,5.25,5.25,0,0,0-.474,2.3v7.216a8.316,8.316,0,0,0,8.939-7.518,1.886,1.886,0,0,0,.043-.345,1.078,1.078,0,0,1,1.142-.991,1.036,1.036,0,0,1,.9.8A.418.418,0,0,1,55.517,48.935Z" transform="translate(-42.27 -41.161)" fill="#fff" stroke="#fff" stroke-width="1"/>
      </g>
      <g id="Group_50" data-name="Group 50" transform="translate(28.239 22.337)">
        <path id="Path_184" data-name="Path 184" d="M56.866,45.511a1.489,1.489,0,0,1-1.486-1.486V40.966a1.489,1.489,0,0,1,1.486-1.486h1.486a1.486,1.486,0,0,1,0,2.973h-.022v1.594A1.453,1.453,0,0,1,56.866,45.511Z" transform="translate(-55.38 -39.48)" fill="#fff"/>
        <path id="Path_185" data-name="Path 185" d="M56.635,44.85a1.057,1.057,0,0,1-1.055-1.055V40.735a1.057,1.057,0,0,1,1.055-1.055h1.486a1.055,1.055,0,0,1,0,2.111h-.431v2A1.057,1.057,0,0,1,56.635,44.85Z" transform="translate(-55.149 -39.249)" fill="#fff"/>
      </g>
      <g id="Group_51" data-name="Group 51" transform="translate(13.829 22.316)">
        <path id="Path_186" data-name="Path 186" d="M51.684,45.523A1.489,1.489,0,0,1,50.2,44.037V42.443h-.022a1.486,1.486,0,1,1,0-2.973h1.486a1.489,1.489,0,0,1,1.486,1.486v3.059A1.49,1.49,0,0,1,51.684,45.523Z" transform="translate(-48.69 -39.47)" fill="#fff"/>
        <path id="Path_187" data-name="Path 187" d="M51.442,44.85a1.057,1.057,0,0,1-1.055-1.055v-2h-.431a1.055,1.055,0,0,1,0-2.111h1.486A1.057,1.057,0,0,1,52.5,40.735v3.059A1.057,1.057,0,0,1,51.442,44.85Z" transform="translate(-48.448 -39.228)" fill="#fff"/>
      </g>
      <g id="Group_52" data-name="Group 52" transform="translate(18.672 28.993)">
        <path id="Path_188" data-name="Path 188" d="M55.552,48.494a4.853,4.853,0,0,1-4.588-4.179,1.486,1.486,0,0,1,1.185-1.723l.28-.022a1.477,1.477,0,0,1,1.443,1.206c.237,1.228,1.012,1.766,1.7,1.766.754,0,1.335-.668,1.572-1.788a1.475,1.475,0,0,1,1.443-1.185l.3.022a1.493,1.493,0,0,1,1.163,1.745c-.517,2.52-2.262,4.157-4.5,4.157Z" transform="translate(-50.938 -42.57)" fill="#fff"/>
        <path id="Path_189" data-name="Path 189" d="M55.35,47.864h0a4.4,4.4,0,0,1-4.2-3.834,1.052,1.052,0,1,1,2.068-.388,2.286,2.286,0,0,0,2.111,2.111h0c.969,0,1.7-.8,1.982-2.133a1.065,1.065,0,0,1,2.089.409C58.926,46.356,57.353,47.864,55.35,47.864Z" transform="translate(-50.715 -42.349)" fill="#fff"/>
      </g>
    </g>
  </g>
</svg>
