<svg xmlns="http://www.w3.org/2000/svg" width="69.138" height="69.138" viewBox="0 0 69.138 69.138">
  <path id="_7d8ab738d4233e3a3b750eaaa143459c" data-name="7d8ab738d4233e3a3b750eaaa143459c" d="M66.83,5H11.31A6.317,6.317,0,0,0,5,11.309c.017,13.839-.012,41.685,0,55.52a6.316,6.316,0,0,0,6.309,6.309H39.07a1.261,1.261,0,0,0,1.262-1.262V61.782h2.524A5.052,5.052,0,0,0,47.9,56.735V54.211a5.052,5.052,0,0,0-5.047-5.047H40.332V40.331H50.426a1.261,1.261,0,0,0,1.262-1.262V35.284a2.527,2.527,0,0,1,2.524-2.524h2.524a2.527,2.527,0,0,1,2.524,2.524v3.785a1.261,1.261,0,0,0,1.262,1.262H71.877a1.261,1.261,0,0,0,1.262-1.262V11.309A6.317,6.317,0,0,0,66.83,5ZM11.31,7.524h26.5v8.833H35.284A5.052,5.052,0,0,0,30.237,21.4v2.524a5.052,5.052,0,0,0,5.047,5.047h2.524v8.833H26.452a1.261,1.261,0,0,0-1.262,1.262v3.785a2.527,2.527,0,0,1-2.524,2.524H20.142a2.527,2.527,0,0,1-2.524-2.524V39.069a1.261,1.261,0,0,0-1.262-1.262H7.524v-26.5A3.79,3.79,0,0,1,11.31,7.524ZM42.855,51.687a2.527,2.527,0,0,1,2.524,2.524v2.524a2.527,2.527,0,0,1-2.524,2.524H39.07a1.261,1.261,0,0,0-1.262,1.262V70.615H11.31a3.79,3.79,0,0,1-3.785-3.785v-26.5H15.1v2.524A5.052,5.052,0,0,0,20.142,47.9h2.524a5.052,5.052,0,0,0,5.047-5.047V40.331H37.808V50.425a1.261,1.261,0,0,0,1.262,1.262Zm27.76-13.88H61.782V35.284a5.052,5.052,0,0,0-5.047-5.047H54.212a5.052,5.052,0,0,0-5.047,5.047v2.524H40.332V27.713a1.261,1.261,0,0,0-1.262-1.262H35.284a2.527,2.527,0,0,1-2.524-2.524V21.4a2.527,2.527,0,0,1,2.524-2.524H39.07a1.261,1.261,0,0,0,1.262-1.262V7.524h26.5a3.79,3.79,0,0,1,3.785,3.785Z" transform="translate(-4.501 -4.5)" fill="#fff" stroke="#fff" stroke-width="1"/>
</svg>
