<svg xmlns="http://www.w3.org/2000/svg" width="129.228" height="123.853" viewBox="0 0 129.228 123.853">
  <g id="cone" transform="translate(-4 -1025.359)">
    <path id="Path_405" data-name="Path 405" d="M52.283,1025.369a16.178,16.178,0,0,0-14.87,9.844,14.631,14.631,0,0,0-1,3.3l.095-.453L7.882,1134.268a2.693,2.693,0,1,0,5.153,1.536L41.672,1039.6a2.7,2.7,0,0,0,.095-.453,6.546,6.546,0,0,1,.6-1.83,10.777,10.777,0,0,1,19.792-.105,20.983,20.983,0,0,1,.978,2.787c.01.032.021.064.032.1l28.363,95.165a2.692,2.692,0,1,0,5.153-1.536l-28.332-95.07a25.856,25.856,0,0,0-1.262-3.607,16.179,16.179,0,0,0-14.807-9.686Z" transform="translate(16.33 0)" fill="#ffc82d"/>
    <path id="Path_406" data-name="Path 406" d="M27.4,1029.361v5.384h33.99v-5.384ZM21.507,1050.9v5.384H68.59V1050.9Zm-6.247,21.538v5.385h59.45v-5.385H15.26Zm-5.889,21.538v5.385H81.914v-5.385Z" transform="translate(23.55 17.546)" fill="#ffc82d" fill-rule="evenodd"/>
    <path id="Path_407" data-name="Path 407" d="M6.692,1045.36A2.692,2.692,0,0,0,4,1048.053v10.769a2.692,2.692,0,0,0,2.692,2.692H130.535a2.693,2.693,0,0,0,2.692-2.693v-10.768a2.692,2.692,0,0,0-2.692-2.692Zm2.692,5.384H127.843v5.385H9.384Z" transform="translate(0 87.699)" fill="#ffc82d"/>
  </g>
</svg>
