<svg xmlns="http://www.w3.org/2000/svg" xmlns:xlink="http://www.w3.org/1999/xlink" width="78" height="81" viewBox="0 0 78 81">
  <defs>
    <clipPath id="clip-path">
      <rect id="Rectangle_14" data-name="Rectangle 14" width="78" height="81" transform="translate(-0.296 -0.089)" fill="#fff" stroke="#fff" stroke-width="1"/>
    </clipPath>
  </defs>
  <g id="Group_27" data-name="Group 27" transform="translate(0.296 0.089)" clip-path="url(#clip-path)">
    <path id="Path_75" data-name="Path 75" d="M16.777,76.379c-3.529,0-6-.847-7.5-2.568-2.334-2.671-1.466-6.564-1-8.655.666-2.986-2.185-5.354-2.214-5.377a1.376,1.376,0,0,1-.474-1.349C5.6,58.376,6.671,52.914,4,51.675,1.958,50.726.665,49.538.159,48.144a2.766,2.766,0,0,1,.578-2.791C6.341,39.112,8.415,35.071,8.1,34.2c-3.274-2.749-2.044-8.1-1.991-8.323C9.115,9.272,21.073,3.588,30.573,1.756a1.362,1.362,0,0,1,.511,2.676c-8.669,1.671-19.578,6.845-22.327,22-.024.109-.905,4.013,1.129,5.735a2.67,2.67,0,0,1,.927,1.919c.226,3.325-4.956,9.629-8.066,13.091.07.341.535,1.16,2.391,2.022,3.831,1.778,3.51,7.008,3.23,9.016,1.133,1.146,3.354,3.934,2.551,7.534-.5,2.241-.923,4.758.39,6.261,1.185,1.356,3.849,1.889,7.7,1.53A64.758,64.758,0,0,0,36.83,69.214a1.362,1.362,0,0,1,1.033,2.519,66.35,66.35,0,0,1-18.632,4.526q-1.3.12-2.454.119" transform="translate(0.554 0.736)" fill="#fff" stroke="#fff" stroke-width="1"/>
    <path id="Path_76" data-name="Path 76" d="M46.563,69.242h-.027a1.36,1.36,0,0,1-1.329-1.388c.194-10.419,3.043-16.249,5.8-21.887a46.824,46.824,0,0,0,4.287-11.212,1.355,1.355,0,1,1,2.648.578,49.7,49.7,0,0,1-4.5,11.836c-2.624,5.37-5.338,10.925-5.521,20.737a1.359,1.359,0,0,1-1.354,1.337" transform="translate(16.428 11.955)" fill="#fff" stroke="#fff" stroke-width="1"/>
    <path id="Path_77" data-name="Path 77" d="M20.7,62.013a1.358,1.358,0,0,1-1.345-1.206l-.579-5.022a1.355,1.355,0,1,1,2.692-.313l.579,5.022A1.361,1.361,0,0,1,20.858,62a1.388,1.388,0,0,1-.157.009" transform="translate(7.145 19.184)" fill="#fff" stroke="#fff" stroke-width="1"/>
    <path id="Path_78" data-name="Path 78" d="M26.766,43a1.358,1.358,0,0,1-1.355-1.362V28.537a1.367,1.367,0,0,1,.4-.963L42.434,10.859V6.472a1.355,1.355,0,1,1,2.71,0v4.951a1.367,1.367,0,0,1-.4.963L28.121,29.1V41.642A1.359,1.359,0,0,1,26.766,43" transform="translate(9.477 1.923)" fill="#fff" stroke="#fff" stroke-width="1"/>
    <path id="Path_79" data-name="Path 79" d="M40.19,9.1a4.5,4.5,0,0,1-3.2-1.331,4.574,4.574,0,0,1,0-6.436h0a4.517,4.517,0,0,1,6.4,0,4.575,4.575,0,0,1,0,6.437,4.507,4.507,0,0,1-3.2,1.33M38.9,3.257h0a1.836,1.836,0,0,0,0,2.583,1.813,1.813,0,0,0,2.57,0,1.836,1.836,0,0,0,0-2.583,1.813,1.813,0,0,0-2.569,0" transform="translate(13.077 0.128)" fill="#fff" stroke="#fff" stroke-width="1"/>
    <path id="Path_80" data-name="Path 80" d="M46.14,30.57a1.347,1.347,0,0,1-.958-.4,1.367,1.367,0,0,1,0-1.926l1.849-1.859a1.353,1.353,0,0,1,.958-.4h2.838a1.362,1.362,0,0,1,0,2.725H48.551L47.1,30.171a1.347,1.347,0,0,1-.958.4" transform="translate(16.28 9.253)" fill="#fff" stroke="#fff" stroke-width="1"/>
    <path id="Path_81" data-name="Path 81" d="M53.025,32.726a4.5,4.5,0,0,1-3.2-1.331,4.574,4.574,0,0,1,0-6.437h0a4.517,4.517,0,0,1,6.4,0,4.573,4.573,0,0,1,0,6.437,4.5,4.5,0,0,1-3.2,1.331m-1.286-5.841a1.835,1.835,0,0,0,0,2.583,1.815,1.815,0,0,0,2.57,0,1.836,1.836,0,0,0,0-2.583,1.813,1.813,0,0,0-2.57,0" transform="translate(17.584 8.425)" fill="#fff" stroke="#fff" stroke-width="1"/>
    <path id="Path_82" data-name="Path 82" d="M21.1,33.018a1.358,1.358,0,0,1-1.355-1.362V23.795a1.366,1.366,0,0,1,.4-.963L32.464,10.44V8.151a1.355,1.355,0,1,1,2.71,0V11a1.367,1.367,0,0,1-.4.963L22.451,24.359v7.3A1.358,1.358,0,0,1,21.1,33.018" transform="translate(7.486 2.512)" fill="#fff" stroke="#fff" stroke-width="1"/>
    <path id="Path_83" data-name="Path 83" d="M31.337,10.923a4.5,4.5,0,0,1-3.2-1.33,4.575,4.575,0,0,1,0-6.437,4.519,4.519,0,0,1,6.4,0,4.574,4.574,0,0,1,0,6.436h0a4.5,4.5,0,0,1-3.2,1.33M33.58,8.63h0ZM31.336,4.549a1.8,1.8,0,0,0-1.285.535,1.836,1.836,0,0,0,0,2.583,1.814,1.814,0,0,0,2.57,0,1.837,1.837,0,0,0,0-2.583,1.81,1.81,0,0,0-1.286-.535" transform="translate(9.969 0.77)" fill="#fff" stroke="#fff" stroke-width="1"/>
    <path id="Path_84" data-name="Path 84" d="M32.236,48.044a1.358,1.358,0,0,1-1.355-1.362V26.124a1.366,1.366,0,0,1,.4-.963l1.99-2a1.35,1.35,0,0,1,1.916,0,1.367,1.367,0,0,1,0,1.926l-1.593,1.6V46.682a1.359,1.359,0,0,1-1.355,1.362" transform="translate(11.398 8.121)" fill="#fff" stroke="#fff" stroke-width="1"/>
    <path id="Path_85" data-name="Path 85" d="M36.11,26.905a1.347,1.347,0,0,1-.958-.4,1.367,1.367,0,0,1,0-1.926L49.824,9.829a1.349,1.349,0,0,1,1.916,0,1.367,1.367,0,0,1,0,1.926L37.068,26.506a1.347,1.347,0,0,1-.958.4" transform="translate(12.758 3.44)" fill="#fff" stroke="#fff" stroke-width="1"/>
    <path id="Path_86" data-name="Path 86" d="M49.454,14.5a4.543,4.543,0,1,1,3.2-7.768,4.574,4.574,0,0,1,0,6.438,4.5,4.5,0,0,1-3.2,1.33m0-6.375a1.823,1.823,0,1,0,1.285,3.118,1.836,1.836,0,0,0,0-2.584,1.809,1.809,0,0,0-1.285-.534" transform="translate(16.33 2.026)" fill="#fff" stroke="#fff" stroke-width="1"/>
    <path id="Path_87" data-name="Path 87" d="M38.4,41.816a1.358,1.358,0,0,1-1.355-1.362V29.226a1.366,1.366,0,0,1,.4-.963L43.276,22.4a1.35,1.35,0,0,1,1.916,0,1.367,1.367,0,0,1,0,1.926L39.759,29.79V40.454A1.358,1.358,0,0,1,38.4,41.816" transform="translate(13.564 7.854)" fill="#fff" stroke="#fff" stroke-width="1"/>
    <path id="Path_88" data-name="Path 88" d="M45.275,22.986a1.347,1.347,0,0,1-.958-.4,1.367,1.367,0,0,1,0-1.926l3.171-3.188a1.352,1.352,0,0,1,.958-.4H53.37a1.362,1.362,0,0,1,0,2.725H49.007l-2.774,2.789a1.347,1.347,0,0,1-.958.4" transform="translate(15.976 6.124)" fill="#fff" stroke="#fff" stroke-width="1"/>
    <path id="Path_89" data-name="Path 89" d="M54.827,23.815a4.486,4.486,0,0,1-3.2-1.332,4.573,4.573,0,0,1,0-6.436,4.516,4.516,0,0,1,6.4,0,4.573,4.573,0,0,1,0,6.436,4.482,4.482,0,0,1-3.2,1.332m0-6.376a1.81,1.81,0,0,0-1.286.535,1.836,1.836,0,0,0,0,2.583,1.855,1.855,0,0,0,2.569,0,1.835,1.835,0,0,0,0-2.583,1.8,1.8,0,0,0-1.284-.535" transform="translate(18.217 5.296)" fill="#fff" stroke="#fff" stroke-width="1"/>
  </g>
</svg>
