<svg xmlns="http://www.w3.org/2000/svg" xmlns:xlink="http://www.w3.org/1999/xlink" width="90" height="54" viewBox="0 0 90 54">
  <defs>
    <clipPath id="clip-path">
      <rect id="Rectangle_16" data-name="Rectangle 16" width="90" height="54" transform="translate(-0.328 0.299)" fill="#fff" stroke="#fff" stroke-width="1"/>
    </clipPath>
  </defs>
  <g id="Group_32" data-name="Group 32" transform="translate(0.328 -0.299)">
    <g id="Group_31" data-name="Group 31" clip-path="url(#clip-path)">
      <path id="Path_105" data-name="Path 105" d="M19.612,41.317H10.079A10.07,10.07,0,0,1,2.93,38.371,9.843,9.843,0,0,1,0,31.334C.015,21.7,7.11,15.778,7.412,15.53a1.482,1.482,0,0,1,2.075.2,1.459,1.459,0,0,1-.2,2.06c-.064.052-6.329,5.327-6.341,13.551A6.937,6.937,0,0,0,5.016,36.3a7.133,7.133,0,0,0,5.063,2.087h9.532a1.465,1.465,0,1,1,0,2.929" transform="translate(-0.571 7.627)" fill="#fff" stroke="#fff" stroke-width="1"/>
      <path id="Path_106" data-name="Path 106" d="M7.429,23.22a1.471,1.471,0,0,1-1.2-.615c-1.491-2.086-3.384-7.019.123-10.765,4.159-4.446,10.076-1.913,10.327-1.8a1.46,1.46,0,0,1,.75,1.932,1.476,1.476,0,0,1-1.945.745c-.168-.071-4.257-1.783-6.974,1.118-2.741,2.929.007,6.911.126,7.078A1.467,1.467,0,0,1,7.429,23.22" transform="translate(1.491 4.802)" fill="#fff" stroke="#fff" stroke-width="1"/>
      <path id="Path_107" data-name="Path 107" d="M14.526,35.779c-.3,0-.576-.01-.837-.027a1.465,1.465,0,1,1,.2-2.923c.311.018,7.435.409,8.566-4.72a1.473,1.473,0,0,1,2.879.628c-1.239,5.619-7.193,7.042-10.805,7.042" transform="translate(5.252 13.189)" fill="#fff" stroke="#fff" stroke-width="1"/>
      <path id="Path_108" data-name="Path 108" d="M11.24,16.4a1.477,1.477,0,0,1-.452-.071,1.462,1.462,0,0,1-.95-1.843c.085-.263,2.149-6.46,7.2-8.549a9.655,9.655,0,0,1,7.435.135A11.89,11.89,0,0,1,30.2,1.5C34,.081,38.551.545,43.727,2.883,47.562.3,55.2-2.334,61.112,3.54a12.819,12.819,0,0,1,3.652,6.544,1.473,1.473,0,0,1-2.914.442,10.121,10.121,0,0,0-2.822-4.914c-6.055-6.017-13.907-.13-14.24.123a1.493,1.493,0,0,1-1.546.159C38.511,3.61,34.491,3.049,31.288,4.227a8.76,8.76,0,0,0-4.835,4.3,1.487,1.487,0,0,1-2.024.73,7.354,7.354,0,0,0-6.255-.62c-3.165,1.308-5.066,5.312-5.531,6.744a1.474,1.474,0,0,1-1.4,1.015" transform="translate(4.047 0.442)" fill="#fff" stroke="#fff" stroke-width="1"/>
      <path id="Path_109" data-name="Path 109" d="M63.5,44.332c-.2,0-.393-.006-.577-.015l-21.933,0a10.032,10.032,0,0,1-10.069-9.825v-.223a1.474,1.474,0,0,1,2.948,0v.191a7.084,7.084,0,0,0,7.121,6.928H63c.389.018,7.746.295,9.019-6.084,1.635-8.18-4.905-10.874-5.184-10.984a1.466,1.466,0,0,1,1.073-2.729c3.165,1.221,8.7,5.776,7,14.284-1.346,6.738-7.747,8.456-11.414,8.456" transform="translate(14.048 10.605)" fill="#fff" stroke="#fff" stroke-width="1"/>
      <path id="Path_110" data-name="Path 110" d="M56.676,30.828a1.474,1.474,0,0,1-1.2-.613,1.458,1.458,0,0,1,.324-2.03c.141-.109,2.577-2.093,1.734-7.58-.932-6.061-5.068-6.817-5.243-6.845a1.465,1.465,0,0,1,.438-2.9c.263.038,6.447,1.022,7.719,9.3,1.141,7.416-2.749,10.275-2.915,10.393a1.475,1.475,0,0,1-.855.273" transform="translate(23.569 5.571)" fill="#fff" stroke="#fff" stroke-width="1"/>
      <path id="Path_111" data-name="Path 111" d="M57.392,16.777a1.469,1.469,0,0,1-1.474-1.465c0-.036-.056-4.053-2.688-6.3-1.6-1.369-3.9-1.851-6.834-1.431a1.465,1.465,0,1,1-.42-2.9c3.83-.547,6.923.169,9.2,2.129,3.648,3.141,3.69,8.288,3.69,8.505a1.469,1.469,0,0,1-1.474,1.465" transform="translate(20.572 2.57)" fill="#fff" stroke="#fff" stroke-width="1"/>
      <path id="Path_112" data-name="Path 112" d="M26.979,27.293c-2.008,0-6.737-.5-8.753-4.949a7.545,7.545,0,0,1,1.923-9.222,1.482,1.482,0,0,1,2.067.269,1.458,1.458,0,0,1-.261,2.047,4.587,4.587,0,0,0-1.041,5.7c1.656,3.657,6.467,3.22,6.672,3.2.028,0,.063-.006.091-.006.165-.009,4.215-.253,4.811-3.608a1.474,1.474,0,0,1,2.9.51c-.8,4.519-5.263,5.912-7.548,6.022-.125.011-.432.034-.865.034" transform="translate(7.671 6.503)" fill="#fff" stroke="#fff" stroke-width="1"/>
      <path id="Path_113" data-name="Path 113" d="M16.69,22.2a8.212,8.212,0,0,1-3.5-.858,1.461,1.461,0,0,1-.7-1.951,1.478,1.478,0,0,1,1.964-.7c3.688,1.737,5.255-1.046,5.531-1.621a1.481,1.481,0,0,1,1.958-.7,1.456,1.456,0,0,1,.717,1.932,7.19,7.19,0,0,1-3.841,3.524,6.207,6.207,0,0,1-2.128.371" transform="translate(5.267 8.119)" fill="#fff" stroke="#fff" stroke-width="1"/>
      <path id="Path_114" data-name="Path 114" d="M48.44,29.092a4.988,4.988,0,0,1-4.018-2.2,1.458,1.458,0,0,1,.358-2.04,1.479,1.479,0,0,1,2.053.356,1.848,1.848,0,0,0,2,.891c.792-.252,1.26-1.229,1.25-2.614-.023-3.257-3.269-4.25-3.407-4.291a1.465,1.465,0,0,1,.81-2.816,7.6,7.6,0,0,1,5.545,7.086c.022,3.219-1.69,4.912-3.3,5.425a4.257,4.257,0,0,1-1.289.2" transform="translate(20.308 8.162)" fill="#fff" stroke="#fff" stroke-width="1"/>
      <path id="Path_115" data-name="Path 115" d="M34.335,23.454a9.749,9.749,0,0,1-6.266-2.66,1.458,1.458,0,0,1,0-2.071,1.48,1.48,0,0,1,2.08,0c.416.407,4.145,3.829,7.987,0a1.48,1.48,0,0,1,2.084,0,1.457,1.457,0,0,1,0,2.071,8.232,8.232,0,0,1-5.892,2.66" transform="translate(12.499 9.093)" fill="#fff" stroke="#fff" stroke-width="1"/>
      <path id="Path_116" data-name="Path 116" d="M51.514,30.027a1.532,1.532,0,0,1-.183-.011,1.466,1.466,0,0,1-1.282-1.634,2.878,2.878,0,0,0-1.89-2.942A1.466,1.466,0,0,1,49.207,22.7a5.783,5.783,0,0,1,3.768,6.04,1.471,1.471,0,0,1-1.461,1.285" transform="translate(21.759 11.133)" fill="#fff" stroke="#fff" stroke-width="1"/>
      <path id="Path_117" data-name="Path 117" d="M31.24,34.344a16.071,16.071,0,0,1-8.385-2.319,1.459,1.459,0,0,1-.5-2.012,1.479,1.479,0,0,1,2.024-.493A13.657,13.657,0,0,0,35.967,30.6a1.479,1.479,0,0,1,1.927.787A1.459,1.459,0,0,1,37.11,33.3a16.354,16.354,0,0,1-5.869,1.04" transform="translate(9.901 14.3)" fill="#fff" stroke="#fff" stroke-width="1"/>
    </g>
  </g>
</svg>
