<svg xmlns="http://www.w3.org/2000/svg" width="42.973" height="39.072" viewBox="0 0 42.973 39.072">
  <path id="_0ff33e4b7463c02f7dc34c2c2105c567" data-name="0ff33e4b7463c02f7dc34c2c2105c567" d="M8.753,28.456h2.836a4.093,4.093,0,0,0,4.093-4.093V20.158a4.093,4.093,0,0,0-4.093-4.093H8.753A4.093,4.093,0,0,0,4.66,20.158v4.205a4.093,4.093,0,0,0,4.093,4.093Zm-2.046-8.3a2.046,2.046,0,0,1,2.046-2.046h2.836a2.046,2.046,0,0,1,2.046,2.046v4.205a2.046,2.046,0,0,1-2.046,2.046H8.753a2.046,2.046,0,0,1-2.046-2.046Zm10.252,13.35a1.023,1.023,0,0,1-1.432-.2,3.81,3.81,0,0,0-3.069-1.533H7.885a3.845,3.845,0,0,0-3.839,3.841V37.5a15.949,15.949,0,0,0,6.121.866,23.067,23.067,0,0,0,3.888-.241,1.023,1.023,0,1,1,.344,2.018,24.833,24.833,0,0,1-4.228.27,16.545,16.545,0,0,1-7.592-1.328A1.023,1.023,0,0,1,2,38.166V35.612a5.891,5.891,0,0,1,5.885-5.885h4.563a5.834,5.834,0,0,1,4.707,2.349,1.023,1.023,0,0,1-.2,1.432Zm28.014,2.1v2.554a1.023,1.023,0,0,1-.575.921,16.545,16.545,0,0,1-7.592,1.328,24.833,24.833,0,0,1-4.228-.27,1.023,1.023,0,0,1-.837-1.181,1.037,1.037,0,0,1,1.181-.837,23.066,23.066,0,0,0,3.888.241,15.949,15.949,0,0,0,6.116-.866V35.612a3.845,3.845,0,0,0-3.839-3.839H34.524a3.81,3.81,0,0,0-3.069,1.533,1.023,1.023,0,0,1-1.637-1.228,5.834,5.834,0,0,1,4.707-2.349h4.563A5.891,5.891,0,0,1,44.973,35.612ZM22.488,22.137a3.479,3.479,0,0,0-3.479,3.479v3.047a3.479,3.479,0,0,0,3.479,3.479h2a3.479,3.479,0,0,0,3.479-3.479V25.616a3.479,3.479,0,0,0-3.479-3.479Zm3.43,3.479v3.047A1.432,1.432,0,0,1,24.485,30.1h-2a1.432,1.432,0,0,1-1.432-1.432V25.616a1.432,1.432,0,0,1,1.432-1.432h2a1.432,1.432,0,0,1,1.432,1.432Zm-.677,7.7H21.733a4.768,4.768,0,0,0-4.766,4.764v1.964a1.023,1.023,0,0,0,.577.921,12.929,12.929,0,0,0,5.934,1.044,12.929,12.929,0,0,0,5.934-1.044,1.023,1.023,0,0,0,.577-.921V38.078a4.768,4.768,0,0,0-4.75-4.764Zm2.72,6.057a12.194,12.194,0,0,1-4.473.589,12.194,12.194,0,0,1-4.473-.589V38.078a2.722,2.722,0,0,1,2.72-2.717H25.24a2.722,2.722,0,0,1,2.72,2.717Zm3.331-15.008a4.093,4.093,0,0,0,4.093,4.093H38.22a4.093,4.093,0,0,0,4.093-4.093V20.158a4.093,4.093,0,0,0-4.093-4.093H35.384a4.093,4.093,0,0,0-4.093,4.093Zm2.046-4.205a2.046,2.046,0,0,1,2.046-2.046H38.22a2.046,2.046,0,0,1,2.046,2.046v4.205A2.046,2.046,0,0,1,38.22,26.41H35.384a2.046,2.046,0,0,1-2.046-2.046ZM21.379,16.5a4.093,4.093,0,0,0,4.215,0c5.277-3.16,6.065-6.579,6.065-8.335a4.876,4.876,0,0,0-4.6-5.206,5.644,5.644,0,0,0-3.575,1.279,5.644,5.644,0,0,0-3.575-1.279,4.876,4.876,0,0,0-4.6,5.2C15.313,9.921,16.1,13.34,21.379,16.5ZM19.911,5.005A3.638,3.638,0,0,1,22.67,6.284a1.06,1.06,0,0,0,1.637,0,3.683,3.683,0,0,1,2.754-1.273,2.865,2.865,0,0,1,2.552,3.147c0,2.251-1.842,4.649-5.069,6.581a2.093,2.093,0,0,1-2.116,0c-3.221-1.926-5.069-4.33-5.069-6.581a2.865,2.865,0,0,1,2.552-3.153Z" transform="translate(-2 -2.959)"/>
</svg>
