<svg xmlns="http://www.w3.org/2000/svg" width="42.859" height="42.859" viewBox="0 0 42.859 42.859">
  <g id="_7d43bbacd9dd458eb47a9c2757e532fd" data-name="7d43bbacd9dd458eb47a9c2757e532fd" transform="translate(0.175 0.175)">
    <path id="Path_206" data-name="Path 206" d="M19.262,5.443V4.1A17.3,17.3,0,0,0,4.1,19.262H5.443A15.967,15.967,0,0,1,19.262,5.443ZM5.443,23.247H4.1A17.3,17.3,0,0,0,19.262,38.405V37.066A15.967,15.967,0,0,1,5.443,23.247ZM21.255,9.3a.664.664,0,0,0,.664-.664V.664a.664.664,0,0,0-1.328,0v7.97a.664.664,0,0,0,.664.664Zm0,23.911a.664.664,0,0,0-.664.664v7.97a.664.664,0,0,0,1.328,0v-7.97a.664.664,0,0,0-.664-.664Zm20.59-12.62h-7.97a.664.664,0,1,0,0,1.328h7.97a.664.664,0,1,0,0-1.328ZM9.3,21.254a.664.664,0,0,0-.664-.664H.664a.664.664,0,1,0,0,1.328h7.97a.664.664,0,0,0,.664-.664Zm17.5-8.27a9.987,9.987,0,1,0,2.8,2.839l-.958.966a8.656,8.656,0,1,1-2.8-2.841Zm2.439-7.009.014-.013A17.133,17.133,0,0,0,23.247,4.1V5.443a15.815,15.815,0,0,1,5.394,1.7A1.991,1.991,0,0,1,29.243,5.975Zm6.012,7.673a15.821,15.821,0,0,1,1.812,5.614h1.339a17.137,17.137,0,0,0-2.038-6.345l-.3.279A1.984,1.984,0,0,1,35.255,13.648Z" transform="translate(0 0)" stroke="#000" stroke-width="0.35"/>
    <path id="Path_207" data-name="Path 207" d="M61.059,24.735l-.023-.025.114-.373a.664.664,0,0,0-1.27-.389l-.851,2.783a.664.664,0,0,0,.149.647.671.671,0,0,0,.635.195l2.813-.648a.664.664,0,1,0-.3-1.295s-.368.085-.369.083l8.775-8.842,3.339.207h.041a.663.663,0,0,0,.453-.179l4.812-4.5a.664.664,0,0,0-.318-1.135l-3.089-.642-.63-3.1a.664.664,0,0,0-1.108-.35l-4.671,4.431a.664.664,0,0,0-.205.533l.3,3.92Zm12.811-9-1.891-.117,3.673-3.7,1.885.392ZM70.706,12.36l3.573-3.389L74.692,11,70.9,14.822ZM62.653,41.742V43.08a17.125,17.125,0,0,0,4.592-1.194,6.967,6.967,0,0,1-.661-1.163A15.811,15.811,0,0,1,62.653,41.742ZM76.472,27.922a15.808,15.808,0,0,1-.862,3.519,6.961,6.961,0,0,1,1.184.631,17.129,17.129,0,0,0,1.017-4.151ZM72.948,32.24a5.646,5.646,0,1,0,5.646,5.646A5.646,5.646,0,0,0,72.948,32.24Zm0,9.963a4.317,4.317,0,1,1,4.317-4.317A4.317,4.317,0,0,1,72.948,42.2Z" transform="translate(-39.406 -4.675)" stroke="#000" stroke-width="0.35"/>
    <path id="Path_208" data-name="Path 208" d="M52.562,50.552A1.989,1.989,0,0,1,54.3,50.27a1.779,1.779,0,0,1,.266.109c.053.01.105.025.158.037l1.046-1.054a5.012,5.012,0,1,0,2.761,2.876l-1.074,1.083c.009.052.017.1.024.157a1.847,1.847,0,0,1,.142.385,1.991,1.991,0,0,1-.59,1.91,3.65,3.65,0,1,1-4.465-5.221ZM67.717,64.243,65.339,66.2l-.733-.682a.664.664,0,1,0-.9.972l1.158,1.078a.664.664,0,0,0,.874.027l2.827-2.325a.664.664,0,1,0-.844-1.026Z" transform="translate(-32.604 -32.709)" stroke="#000" stroke-width="0.35"/>
  </g>
</svg>
