<svg xmlns="http://www.w3.org/2000/svg" width="35.546" height="38.371" viewBox="0 0 35.546 38.371">
  <path id="_20aac257d46e469f1ef6283bb9f1424f" data-name="20aac257d46e469f1ef6283bb9f1424f" d="M88.6,42.1a.876.876,0,0,0-.8-.527H73.646v-3.7A.876.876,0,0,0,72.77,37H54a.876.876,0,0,0-.876.876V74.495a.876.876,0,0,0,.876.876h4.38a.876.876,0,0,0,.876-.876V54.565H64.4V57.85a.876.876,0,0,0,.876.876H87.795a.876.876,0,0,0,.64-1.474l-6.626-7.1,6.626-7.1A.876.876,0,0,0,88.6,42.1ZM54.877,38.752H71.894V52.813H54.877Zm2.628,34.867H54.877V54.565h2.628ZM79.971,49.554a.876.876,0,0,0,0,1.2l5.808,6.225H66.156V54.565H72.77a.876.876,0,0,0,.876-.876V43.329H85.779Z" transform="translate(-53.125 -37)"/>
</svg>
