<svg xmlns="http://www.w3.org/2000/svg" width="39.263" height="39.287" viewBox="0 0 39.263 39.287">
  <path id="_831c510c3846146e5f4189b547c02c74" data-name="831c510c3846146e5f4189b547c02c74" d="M39.926,22.1l-2.4-3.143a.916.916,0,0,0-1.138-.263L32,20.883H29.834v-1a.918.918,0,0,0-.918-.916H24.07L21.982,17.3a.909.909,0,0,0-.569-.2h-5.59a.918.918,0,0,0-.663.283L8,24.89,6.45,23.335a.941.941,0,0,0-1.3,0L1.275,27.214a.916.916,0,0,0-.269.647V39.18a.916.916,0,0,0,.916.923H13.24a.912.912,0,0,0,.647-.269l3.879-3.879a.914.914,0,0,0,0-1.295l-1.7-1.7,1.375-1.245H27.583a.923.923,0,0,0,.534-.165L39.728,23.4a.919.919,0,0,0,.2-1.307ZM12.86,38.264H2.838V28.242L5.8,25.279,15.823,35.3ZM27.3,29.884h-10.2a.918.918,0,0,0-.614.235l-1.707,1.538L9.3,26.186l6.915-7.247h4.877l2.093,1.666a.919.919,0,0,0,.569.2h4.251v1.538l-1.56,1.1H20.075a.916.916,0,1,0,0,1.832h6.657a.923.923,0,0,0,.534-.167l2.186-1.547a.923.923,0,0,0,.388-.749V22.72c2.312-.028,2.458.071,2.8-.1l3.9-1.956,1.359,1.779Zm1.01-14.022a.918.918,0,0,0,1.222,0c.231-.208,5.691-5.106,6.972-6.758a4.775,4.775,0,0,0,.823-4.091,5.449,5.449,0,0,0-3.07-3.635,4.927,4.927,0,0,0-5.336,1.138,4.921,4.921,0,0,0-5.336-1.138,5.448,5.448,0,0,0-3.068,3.634A4.784,4.784,0,0,0,21.338,9.1c1.27,1.656,6.735,6.552,6.968,6.76ZM22.29,5.45a3.623,3.623,0,0,1,2.052-2.406,2.33,2.33,0,0,1,.991-.221,4.381,4.381,0,0,1,2.876,1.57.927.927,0,0,0,.711.333.914.914,0,0,0,.711-.333c.076-.091,1.908-2.252,3.868-1.35A3.619,3.619,0,0,1,35.552,5.45a2.959,2.959,0,0,1-.494,2.533,84,84,0,0,1-6.139,5.962,83.923,83.923,0,0,1-6.132-5.962,2.954,2.954,0,0,1-.5-2.533Z" transform="translate(-0.931 -0.891)" stroke="#fff" stroke-width="0.15"/>
</svg>
