<svg xmlns="http://www.w3.org/2000/svg" width="32.66" height="45.874" viewBox="0 0 32.66 45.874">
  <path id="_994c76a3e56b38e7426e722ed579ce4f" data-name="994c76a3e56b38e7426e722ed579ce4f" d="M21.055.094l-.739.037-.423.021h-.064L18.777.3,18.04.389l.2,1.472.736-.095L20,1.63l.387-.021.742-.034L21.055.094ZM22.67.137l-.191,1.475.736.094.674.089.724.157.724.159L25.653.662,24.929.5l-.76-.165L24.105.323l-.7-.089-.738-.1ZM16.409.8l-.687.279-1.2.5L14.46,1.6l-.163.088-.661.338.678,1.321.662-.341.135-.068,1.176-.481.683-.282L16.409.8Zm10.769.38-.56,1.377.69.278.183.074,1.091.555.661.337.672-1.321-.661-.337-1.116-.568-.055-.027-.218-.086-.687-.282ZM12.249,2.834l-.594.445-.622.463-.045.037-.534.473L9.9,4.746l.986,1.11.557-.493.511-.453.591-.444.594-.444-.886-1.187Zm9.071.089A13.324,13.324,0,0,0,7.961,16.19c0,4.006,2.033,6.694,3.911,9.491a27.953,27.953,0,0,1,2.152,3.671l-.528-.322-.769,1.266.635.383.1.059.055.034,1.232.6.085.04a16.087,16.087,0,0,1,.7,4.815v6.031a.742.742,0,0,0,.742.742h10.1a.742.742,0,0,0,.742-.742V36.226a16.129,16.129,0,0,1,.689-4.8l.169-.085.374-.183.663-.33-.554-1.119a26.306,26.306,0,0,1,2.315-4.033c1.879-2.8,3.911-5.484,3.911-9.492A13.324,13.324,0,0,0,21.319,2.923Zm9.967.525-.98,1.113.557.49.712.623.015.016.316.325.514.534,1.069-1.027-.512-.536-.331-.341L32.6,4.6l-.758-.668-.557-.49Zm-9.967.959A11.818,11.818,0,0,1,33.194,16.19c0,3.507-1.751,5.826-3.659,8.664a19.712,19.712,0,0,0-3.77,10.632h-3.7V27.374a.742.742,0,1,0-1.484,0v8.112h-3.7A19.724,19.724,0,0,0,13.1,24.853C11.2,22.016,9.445,19.7,9.445,16.19A11.818,11.818,0,0,1,21.319,4.407ZM8.816,5.936l-.463.576L8.2,6.7l-.037.049L7.468,7.781,7.052,8.4l1.23.828L8.7,8.611l.658-.977.015-.021.138-.171.465-.577L8.816,5.935ZM34.5,6.779,33.278,7.6l.417.614.27.4.006.015.454.812.362.646,1.293-.727-.362-.647-.487-.867L35.2,7.8l-.276-.405L34.5,6.779Zm-14.669.6a.742.742,0,0,0-.742.742V9.292a7.531,7.531,0,0,0-1.144.469l-.827-.825a.742.742,0,0,0-1.049,0l-2.1,2.1a.742.742,0,0,0,0,1.049l.83.828a7.383,7.383,0,0,0-.475,1.143H13.156a.742.742,0,0,0-.742.742v2.969a.742.742,0,0,0,.742.742H14.33a7.389,7.389,0,0,0,.471,1.144l-.827.827a.742.742,0,0,0,0,1.049l2.1,2.1a.742.742,0,0,0,1.049,0l.83-.828a7.4,7.4,0,0,0,1.143.472v1.174a.742.742,0,0,0,.742.742h2.969a.742.742,0,0,0,.742-.742V23.268a7.624,7.624,0,0,0,1.141-.469l.828.828a.742.742,0,0,0,1.049,0l2.1-2.1a.742.742,0,0,0,0-1.049l-.828-.828a7.379,7.379,0,0,0,.472-1.143h1.174a.742.742,0,0,0,.742-.742V14.8a.742.742,0,0,0-.742-.742H28.31a7.4,7.4,0,0,0-.471-1.144l.825-.827a.742.742,0,0,0,0-1.049l-2.1-2.1a.742.742,0,0,0-1.049,0l-.828.828a7.383,7.383,0,0,0-1.143-.475V8.118a.742.742,0,0,0-.742-.742H19.836Zm.742,1.484h1.484v.916a.742.742,0,0,0,.577.723,5.956,5.956,0,0,1,1.838.761.742.742,0,0,0,.92-.1l.646-.647,1.049,1.049-.644.644a.742.742,0,0,0-.1.916,5.937,5.937,0,0,1,.754,1.841.742.742,0,0,0,.724.58h.92v1.484h-.917a.742.742,0,0,0-.724.577,5.953,5.953,0,0,1-.76,1.838.742.742,0,0,0,.1.92l.647.646-1.049,1.049L25.4,21.41a.742.742,0,0,0-.919-.1,6,6,0,0,1-1.838.757.742.742,0,0,0-.579.724v.919H20.579V22.79A.742.742,0,0,0,20,22.064a5.942,5.942,0,0,1-1.838-.758.742.742,0,0,0-.919.1l-.646.647L15.547,21l.644-.644a.742.742,0,0,0,.1-.92,5.922,5.922,0,0,1-.753-1.836.742.742,0,0,0-.726-.58H13.9V15.54h.916a.742.742,0,0,0,.723-.577,5.956,5.956,0,0,1,.761-1.838.742.742,0,0,0-.1-.92l-.647-.646L16.6,10.509l.644.644a.742.742,0,0,0,.916.1A5.946,5.946,0,0,1,20,10.5a.742.742,0,0,0,.58-.721V8.86ZM6.313,9.91l-.242.7L5.7,11.67l-.018.059-.089.352-.184.718,1.44.365.181-.718.085-.331L7.471,11.1l.246-.7-1.4-.487Zm30.36.95-1.4.494.246.687,0,.015.332,1.276.006.036.122.73,1.464-.243-.122-.733-.01-.058L37.3,13l-.346-1.327-.016-.061-.018-.053-.249-.7ZM21.319,13.313a2.969,2.969,0,1,0,2.969,2.969,2.979,2.979,0,0,0-2.969-2.969ZM5.114,14.38l-.055.748L5,15.89l0,.064.009.72.009.742L6.5,17.4l-.009-.742L6.482,16v-.015l.055-.754.055-.742-1.478-.11Zm16.206.417a1.484,1.484,0,1,1-1.484,1.484A1.474,1.474,0,0,1,21.319,14.8Zm14.858.641-.009.745-.006,1-.04.422-.07.739,1.478.138.07-.739.04-.448.006-.064.006-1.033.006-.742-1.481-.015ZM6.668,18.746l-1.461.27.135.727.053.286.015.061.315,1.152.194.715,1.432-.39-.2-.717-.3-1.116L6.8,19.473l-.134-.727Zm29.151.937-.193.712-.137.5,0,.015-.3.836-.252.7,1.4.5.252-.7.324-.894.018-.059.14-.515.193-.715-1.431-.389ZM7.866,22.767,6.574,23.5l.37.647.53.928.031.052.236.341.42.613,1.223-.839-.42-.614L8.741,24.3l-.012-.016-.5-.876-.368-.644Zm26.511.858-.42.614-.72,1.058-.089.107-.468.579,1.152.935.469-.577.11-.138.039-.05.736-1.078.417-.614-1.226-.836ZM10.236,26.3,9.173,27.332l.515.534.383.393.046.045.705.612.56.487.974-1.119L11.8,27.8l-.678-.589-.365-.377-.517-.53Zm21.54.705-.56.481-.594.521-.012.015-.5.362-.6.441.88,1.195.6-.438.545-.4.049-.037.609-.53.557-.49-.977-1.116ZM17.015,36.968h4.192a.742.742,0,0,0,.226,0h4.193v4.546h-8.61V40.03h7.273V38.546H17.015Zm.594,7.515a.742.742,0,1,0,0,1.484H25.03a.742.742,0,0,0,0-1.484Z" transform="translate(-4.998 -0.094)"/>
</svg>
