<svg xmlns="http://www.w3.org/2000/svg" width="38.098" height="39.372" viewBox="0 0 38.098 39.372">
  <g id="_6239b1b989703f6acd8cac1bb9d62e27" data-name="6239b1b989703f6acd8cac1bb9d62e27" transform="translate(0.154 0.15)">
    <path id="Path_212" data-name="Path 212" d="M14.709,22.034h.236A17.277,17.277,0,0,0,19.83,26.17v6.774H14.848a.814.814,0,0,0-.814.814v7.01a.814.814,0,0,0,.814.814H30.016a.814.814,0,0,0,.814-.814V33.75a.814.814,0,0,0-.814-.814H25.041V26.161a17.244,17.244,0,0,0,4.885-4.185c12.335-2.3,11.1-14.883,11.081-15a.814.814,0,0,0-.814-.725H35a24.23,24.23,0,0,0-.09-3.021.814.814,0,0,0-.814-.725H10.761a.814.814,0,0,0-.814.725,24.229,24.229,0,0,0-.09,3.021h-5.7a.814.814,0,0,0-.814.725C3.36,7.1,2.09,19.876,14.709,22.034ZM29.2,39.945H15.662V34.564H29.2Zm-5.789-7.01H21.491V26.968c.212.1.415.2.635.285h0a.814.814,0,0,0,.269.057h0a.757.757,0,0,0,.269-.057h0c.22-.09.423-.187.635-.285ZM39.436,7.875c.057,2.361-.391,9.689-8.052,12.074A26.867,26.867,0,0,0,34.925,7.875ZM11.518,4.13H33.346c.179,3.257.2,16.8-10.91,21.478C11.314,20.926,11.339,7.411,11.518,4.13ZM4.947,7.875H9.938a26.713,26.713,0,0,0,3.639,12.212C5.363,17.938,4.882,10.293,4.947,7.875Z" transform="translate(-3.315 -2.51)" stroke="#000" stroke-width="0.3"/>
  </g>
</svg>
