<svg xmlns="http://www.w3.org/2000/svg" width="52.941" height="28.843" viewBox="0 0 52.941 28.843">
  <g id="_75297bdf3083cda51f429f37533af9de" data-name="75297bdf3083cda51f429f37533af9de" transform="translate(-9.036 -228.553)">
    <path id="Path_397" data-name="Path 397" d="M354.519,235.88q0,.24-.018.48c-.005.079-.014.158-.022.237-.028.267.035-.22-.007.044a6.3,6.3,0,0,1-.24.976c-.024.073-.05.145-.076.216-.016.043-.114.283-.012.042-.059.14-.126.276-.195.411a6.347,6.347,0,0,1-.516.831c-.15.207.134-.166-.026.034-.047.059-.1.115-.144.172-.1.114-.2.222-.306.329s-.216.208-.329.306c-.056.049-.114.1-.172.144q-.13.1.026-.019l-.121.089a6.343,6.343,0,0,1-.77.472c-.134.071-.272.134-.411.195.239-.1,0,0-.042.012-.1.036-.192.069-.289.1a6.314,6.314,0,0,1-.9.216c-.264.045.223-.025-.044.007-.079.009-.158.016-.237.022-.187.015-.374.019-.561.017-.16,0-.32-.011-.479-.024q-.118-.01-.236-.025c.268.032,0,0-.043-.011a6.3,6.3,0,0,1-.971-.252c-.072-.025-.144-.052-.215-.079-.243-.092.2.088-.041-.015-.139-.061-.274-.129-.408-.2a6.348,6.348,0,0,1-.824-.525c.206.153,0,0-.032-.028q-.087-.072-.171-.146c-.113-.1-.22-.2-.325-.31s-.2-.219-.3-.332c-.049-.057-.1-.115-.142-.174.167.209-.037-.056-.066-.1a6.35,6.35,0,0,1-.463-.776c-.034-.067-.066-.136-.1-.2-.019-.042-.117-.28-.019-.039-.067-.165-.125-.334-.178-.5a6.315,6.315,0,0,1-.206-.907c.042.267,0,0,0-.045q-.012-.119-.019-.237c-.013-.187-.014-.375-.01-.562,0-.159.015-.319.03-.477,0-.047.042-.313,0-.045.011-.077.025-.154.039-.231a6.3,6.3,0,0,1,.263-.966c.025-.072.053-.143.081-.214-.1.242,0,0,.019-.039.062-.138.132-.272.2-.405s.151-.261.231-.388c.04-.063.083-.125.126-.187.029-.041.231-.31.066-.1a6.375,6.375,0,0,1,.6-.664c.108-.1.221-.2.336-.3.035-.029.237-.184.032-.029.08-.061.162-.118.244-.175a6.343,6.343,0,0,1,.782-.454q.1-.05.206-.1c.236-.107-.2.08.041-.015.166-.066.336-.121.507-.172.148-.044.3-.08.449-.114.076-.017.153-.031.229-.045.047-.008.311-.046.043-.011a6.421,6.421,0,0,1,1.037-.045c.159,0,.318.019.476.036.267.028-.22-.034.044.007.077.012.154.027.23.042a6.3,6.3,0,0,1,.962.275c.043.016.283.114.042.012.07.03.139.062.207.094.137.064.271.135.4.209s.259.154.385.236c.063.041.124.085.186.128.037.026.24.181.036.023a6.382,6.382,0,0,1,.664.6c.1.108.2.221.3.336.029.035.184.237.028.032.045.06.089.121.132.182a6.348,6.348,0,0,1,.463.776c.034.067.066.136.1.2.019.042.117.28.019.039.058.141.108.286.155.431a6.311,6.311,0,0,1,.217.9c.045.264-.025-.223.007.044.009.079.016.158.022.237.013.16.017.32.018.48a1.006,1.006,0,0,0,2.012,0,7.347,7.347,0,1,0-14.31,2.344,7.31,7.31,0,0,0,2.328,3.348,7.576,7.576,0,0,0,4,1.623,7.343,7.343,0,0,0,7.985-7.315,1.006,1.006,0,1,0-2.012,0Z" transform="translate(-313.677)"/>
    <path id="Path_398" data-name="Path 398" d="M273.082,370.969q.211.135.415.281c.027.019.248.189.062.044.066.051.13.1.193.158a7.855,7.855,0,0,1,.776.752c.112.123.218.252.322.382-.147-.184.024.036.044.062q.073.1.143.205a7.813,7.813,0,0,1,.545.942q.055.113.107.229c.117.257-.076-.191.03.071.064.157.119.318.172.479a7.755,7.755,0,0,1,.266,1.084c.006.034.047.322.015.078.011.087.02.174.028.262.017.177.025.354.03.531,0,.092,0,.183,0,.275v5.129c0,.065,0,.1-.005.162-.013.268.042-.214,0,.046-.014.077-.035.152-.056.226-.012.044-.106.286,0,.048a2.446,2.446,0,0,1-.222.4c-.141.212.137-.159-.028.034a2.479,2.479,0,0,1-.213.213c-.188.171.173-.119-.034.028-.062.044-.127.082-.193.12s-.135.07-.2.1c.233-.107,0-.01-.048,0-.074.023-.15.04-.226.056-.259.055.221-.017-.046,0-.055,0-.112.005-.167.005H256.852c-.071,0-.091,0-.161-.005-.268-.013.214.042-.046,0-.077-.014-.152-.035-.226-.056q-.074-.022-.146-.049.182.082.029.012a2.45,2.45,0,0,1-.389-.233c.205.146.008,0-.028-.035-.056-.051-.107-.107-.157-.162-.171-.188.119.173-.028-.034-.044-.062-.082-.127-.12-.193s-.07-.135-.1-.2c.111.241-.011-.069-.026-.122-.021-.075-.035-.152-.049-.229.047.26.008,0,.005-.049,0-.034,0-.068,0-.1v-4.931c0-.27,0-.539.018-.809.005-.088.014-.176.022-.264,0-.034.042-.325.007-.08.024-.172.057-.343.093-.512a7.756,7.756,0,0,1,.313-1.067c.029-.08.061-.158.093-.237-.089.22.02-.039.034-.069.07-.153.147-.3.227-.451a7.805,7.805,0,0,1,.585-.917c.165-.225-.127.157.047-.06.052-.065.106-.129.16-.192.108-.127.222-.248.338-.368s.238-.234.361-.346q.093-.084.189-.164c.032-.027.312-.247.122-.1.155-.118.316-.228.48-.335a1.006,1.006,0,0,0-1.015-1.737,8.928,8.928,0,0,0-4.086,7.451v4.449a5.071,5.071,0,0,0,.411,2.4,3.476,3.476,0,0,0,3.076,1.823h17.894a3.5,3.5,0,0,0,3.255-2.271,5.8,5.8,0,0,0,.214-2.124v-4.288a8.805,8.805,0,0,0-4.147-7.477,1.006,1.006,0,0,0-1.016,1.737Zm13.886-1.5q0,.238-.027.476c.028-.267,0-.008-.011.041-.014.076-.032.151-.05.226a4.093,4.093,0,0,1-.137.438c-.088.243.09-.2-.015.039-.041.092-.088.181-.136.269a4.136,4.136,0,0,1-.239.381c-.145.209.136-.164-.024.034-.047.058-.1.114-.147.169a4.137,4.137,0,0,1-.319.314c-.056.05-.114.1-.172.143.209-.168-.057.032-.1.061a4.141,4.141,0,0,1-.39.225c-.067.035-.136.066-.2.1.238-.107,0-.006-.042.01a4.105,4.105,0,0,1-.441.129c-.075.018-.152.032-.228.046q-.171.027.035,0l-.157.015a4.206,4.206,0,0,1-.479.009c-.079,0-.158-.009-.237-.016-.267-.023.219.037-.043-.006a4.093,4.093,0,0,1-.451-.1c-.074-.021-.146-.046-.218-.07l-.142-.053q.185.08.032.012a4.128,4.128,0,0,1-.4-.211c-.065-.038-.127-.08-.189-.121-.038-.025-.242-.178-.038-.019a4.155,4.155,0,0,1-.684-.685c.161.2.007,0-.019-.038-.043-.062-.082-.125-.121-.189a4.1,4.1,0,0,1-.211-.4c-.11-.233.078.2-.015-.039-.027-.071-.051-.144-.074-.216a4.1,4.1,0,0,1-.127-.524c-.048-.262.022.223-.006-.043-.008-.079-.012-.158-.016-.237a4.206,4.206,0,0,1,.009-.479c0-.048.038-.313,0-.045.011-.077.026-.153.042-.229a4.1,4.1,0,0,1,.145-.517c.015-.044.113-.283.01-.042.03-.069.063-.137.1-.2a4.119,4.119,0,0,1,.225-.39c.04-.063.084-.124.128-.185-.15.208,0,.006.028-.031a4.149,4.149,0,0,1,.362-.376c.055-.051.112-.1.169-.147q.13-.1-.027.02.06-.044.122-.086a4.136,4.136,0,0,1,.452-.267c.067-.035.136-.066.2-.1-.248.111.064-.018.114-.035a4.111,4.111,0,0,1,.6-.15c.262-.048-.223.022.043-.006.105-.011.211-.015.317-.018a4.183,4.183,0,0,1,.556.026c-.267-.028-.008,0,.041.011.1.018.2.044.3.07s.2.058.292.091q.072.025.142.053-.185-.08-.032-.012a4.122,4.122,0,0,1,.463.251c.064.039.125.082.187.125q.134.1-.024-.023.059.046.116.095a4.153,4.153,0,0,1,.376.362c.068.073.131.15.193.227-.168-.209.032.057.061.1a4.145,4.145,0,0,1,.259.458c.021.042.119.278.02.037.038.094.07.191.1.287a4.1,4.1,0,0,1,.127.524q.027.171,0-.035.009.078.015.157c.009.106.011.212.012.319a1.006,1.006,0,0,0,2.012,0,5.18,5.18,0,0,0-1.751-3.859,5.259,5.259,0,0,0-4.283-1.193,5.129,5.129,0,0,0-3.99,6.624,5.126,5.126,0,0,0,5.788,3.479,5.166,5.166,0,0,0,4.237-5.052,1.006,1.006,0,1,0-2.012,0Z" transform="translate(-230.311 -127.995)"/>
    <path id="Path_399" data-name="Path 399" d="M58.087,374.392q.1.067.207.138c.028.02.247.188.061.041.13.1.252.214.371.329s.23.237.337.363c.023.026.189.245.048.056.066.088.128.18.188.273.091.139.172.285.249.433.039.074.074.15.108.226-.1-.217.013.037.026.07a5.037,5.037,0,0,1,.153.484c.022.083.04.166.059.25.01.044.066.409.034.158a17.609,17.609,0,0,1,.037,2.23v1.788q0,.079-.008.158.03-.207,0-.038c-.011.05-.1.282,0,.045a1.585,1.585,0,0,1-.109.2c-.13.211.14-.153-.027.029-.034.037-.224.191-.02.038a1.608,1.608,0,0,1-.191.118c-.219.121.2-.066-.039.013-.051.017-.3.056-.035.024a1.451,1.451,0,0,1-.16.008H50.425a1.006,1.006,0,0,0,0,2.012h8.438a3.15,3.15,0,0,0,2.01-.482,2.648,2.648,0,0,0,1.1-2.126V378a6.11,6.11,0,0,0-2.874-5.341,1.006,1.006,0,0,0-1.016,1.737Zm-37.481-4.923q0,.238-.027.476c.028-.267,0-.008-.011.041-.014.076-.032.151-.05.226a4.087,4.087,0,0,1-.137.438c-.088.243.09-.2-.015.039-.041.092-.088.181-.136.269a4.134,4.134,0,0,1-.239.381c-.145.209.136-.164-.024.034-.047.058-.1.114-.147.169a4.142,4.142,0,0,1-.319.314c-.056.05-.114.1-.172.143.209-.168-.057.032-.1.061a4.14,4.14,0,0,1-.39.225c-.067.035-.136.066-.2.1.238-.107,0-.006-.042.01a4.1,4.1,0,0,1-.441.129c-.075.018-.152.032-.228.046q-.171.027.035,0l-.157.015a4.206,4.206,0,0,1-.479.009c-.079,0-.158-.009-.237-.016-.267-.023.219.037-.043-.006a4.086,4.086,0,0,1-.451-.1c-.074-.021-.146-.046-.218-.07q-.072-.025-.142-.053.185.08.032.012a4.113,4.113,0,0,1-.4-.211c-.065-.038-.127-.08-.189-.121-.038-.025-.242-.178-.038-.019a4.157,4.157,0,0,1-.684-.685c.161.2.007,0-.019-.038-.043-.062-.082-.125-.121-.189a4.1,4.1,0,0,1-.211-.4c-.11-.233.078.2-.015-.039-.027-.071-.051-.144-.074-.216a4.11,4.11,0,0,1-.127-.524c-.048-.262.022.223-.006-.043-.008-.079-.012-.158-.016-.237a4.192,4.192,0,0,1,.009-.479c0-.048.038-.313,0-.045.011-.077.026-.153.042-.229a4.1,4.1,0,0,1,.145-.517c.015-.044.113-.283.01-.042.03-.069.063-.137.1-.2a4.142,4.142,0,0,1,.225-.39c.04-.063.084-.124.128-.185-.15.208,0,.006.028-.031a4.145,4.145,0,0,1,.362-.376c.055-.051.112-.1.169-.147q.13-.1-.027.02.06-.044.122-.086a4.139,4.139,0,0,1,.452-.267c.067-.035.136-.066.2-.1-.248.111.064-.018.114-.035a4.112,4.112,0,0,1,.6-.15c.261-.048-.223.022.043-.006.105-.011.211-.015.317-.018a4.184,4.184,0,0,1,.556.026c-.267-.028-.008,0,.041.011.1.018.2.044.3.07s.2.058.292.091q.072.025.142.053-.185-.08-.032-.012a4.1,4.1,0,0,1,.463.251c.064.039.125.082.187.125q.134.1-.024-.023.059.046.115.095a4.157,4.157,0,0,1,.376.362c.068.073.131.15.193.227-.168-.209.032.057.061.1a4.136,4.136,0,0,1,.259.458c.021.042.119.278.02.037.038.094.07.191.1.287a4.11,4.11,0,0,1,.127.524q.027.171,0-.035.009.078.015.157c.009.106.011.212.012.319a1.006,1.006,0,1,0,2.012,0,5.18,5.18,0,0,0-1.751-3.859,5.259,5.259,0,0,0-4.283-1.193,5.128,5.128,0,0,0-3.99,6.624,5.126,5.126,0,0,0,5.788,3.479,5.166,5.166,0,0,0,4.237-5.052,1.006,1.006,0,0,0-2.012,0Zm-.014,12.352H11.681c-.084,0-.33-.037-.084.005a1.571,1.571,0,0,1-.221-.061c.234.077.021,0-.032-.025s-.231-.177-.038-.016c-.045-.037-.251-.281-.092-.07a1.6,1.6,0,0,1-.118-.191c-.121-.219.066.2-.013-.039-.017-.051-.056-.3-.024-.035a1.545,1.545,0,0,1-.008-.16v-3.4c0-.178.011-.355.027-.532.028-.29-.035.207.012-.078.014-.085.033-.17.051-.254a5.054,5.054,0,0,1,.139-.494c.026-.081.057-.16.087-.239-.086.224.05-.105.07-.145.073-.151.157-.3.245-.439.044-.071.091-.14.138-.209.019-.027.187-.249.042-.064a5.12,5.12,0,0,1,.759-.769c.213-.178-.164.118.061-.045.067-.049.137-.095.207-.141a1.006,1.006,0,1,0-1.015-1.737A6.208,6.208,0,0,0,9.2,376.427a11.3,11.3,0,0,0-.162,2.619v2.172a2.636,2.636,0,0,0,2.633,2.614h8.919a1.006,1.006,0,0,0,0-2.012Z" transform="translate(0 -127.995)"/>
  </g>
</svg>
