<svg xmlns="http://www.w3.org/2000/svg" width="39.222" height="39.222" viewBox="0 0 39.222 39.222">
  <g id="a25bef51bf21d6c084380779e065f48e" transform="translate(0.075 0.075)">
    <path id="Path_209" data-name="Path 209" d="M20.559,3.954A16.613,16.613,0,0,0,5.651,27.882a1.983,1.983,0,0,1,.167,1.274L4.226,36.914l8.018-1.5a1.984,1.984,0,0,1,1.214.16,16.472,16.472,0,0,0,3.411,1.179.977.977,0,0,1-.432,1.905,18.431,18.431,0,0,1-3.815-1.319.044.044,0,0,0-.018-.005l-8.017,1.5a1.953,1.953,0,0,1-2.273-2.313L3.9,28.765h0a.043.043,0,0,0-.006-.019l.876-.431-.876.431A18.561,18.561,0,1,1,39.005,18.5a.977.977,0,1,1-1.942.215A16.608,16.608,0,0,0,20.559,3.954Z" transform="translate(-2 -2)" stroke="#000" stroke-width="0.15" fill-rule="evenodd"/>
    <path id="Path_210" data-name="Path 210" d="M21.745,12.954a8.791,8.791,0,1,1-8.791,8.791A8.791,8.791,0,0,1,21.745,12.954ZM32.49,21.745A10.745,10.745,0,1,0,21.745,32.489,10.745,10.745,0,0,0,32.49,21.745Z" transform="translate(6.582 6.582)" stroke="#000" stroke-width="0.15" fill-rule="evenodd"/>
    <path id="Path_211" data-name="Path 211" d="M21.888,15.563a.977.977,0,0,0-.977-.977H15.386a.977.977,0,1,0,0,1.954h3.168l-3.168,3.167a.977.977,0,0,0,1.381,1.381l3.168-3.167v3.167a.977.977,0,0,0,1.954,0Z" transform="translate(9.833 10.002)" stroke="#000" stroke-width="0.15" fill-rule="evenodd"/>
  </g>
</svg>
