<svg xmlns="http://www.w3.org/2000/svg" width="28.066" height="30.616" viewBox="0 0 28.066 30.616">
  <g id="maple" transform="translate(-1219 -13.691)">
    <path id="_0b9d63d2441d0d52bb2197330ce664e0" data-name="0b9d63d2441d0d52bb2197330ce664e0" d="M2.054,15.055,1,15.508s6.18,5.376,6.335,5.524c.307.3.6.449.307,1.346s-.607,2.1-.607,2.1,5.734-1.2,6.343-1.351c.524-.054,1.1.149,1.1.748s-.35,6.744-.35,6.744h1.806s-.35-6.14-.35-6.745.572-.8,1.109-.748c.6.149,6.335,1.351,6.335,1.351s-.3-1.2-.6-2.1,0-1.046.3-1.346c.151-.149,6.335-5.524,6.335-5.524l-1.054-.449c-.6-.293-.445-.688-.3-1.041.145-.454,1.211-4.025,1.211-4.025s-2.873.6-3.475.748c-.452.143-.6-.149-.753-.449s-.9-1.938-.9-1.938-3.169,3.582-3.319,3.725c-.6.449-1.211,0-1.06-.6,0-.6,1.662-7.749,1.662-7.749s-1.813,1.041-2.416,1.34c-.452.3-.759.3-1.06-.3C17.291,4.323,15.025,0,15.025,0V0s-2.259,4.323-2.559,4.773c-.3.6-.6.6-1.06.3-.6-.3-2.416-1.34-2.416-1.34s1.662,7.151,1.662,7.749c.152.6-.452,1.047-1.059.6-.151-.149-3.319-3.725-3.319-3.725s-.753,1.633-.9,1.931-.3.592-.753.449c-.607-.149-3.475-.748-3.475-.748s1.06,3.57,1.211,4.025C2.5,14.372,2.655,14.762,2.054,15.055Z" transform="translate(1218 13.691)" fill="#fff"/>
  </g>
</svg>
